# AST/ASF file generated using VICON BodyLanguage
# -----------------------------------------------
:version 1.10
:name VICON
:units
  mass 1.0
  length 0.45
  angle deg
:documentation
   .ast/.asf automatically generated from VICON data using
   VICON BodyBuilder and BodyLanguage model FoxedUp or BRILLIANT.MOD
:root
   order TX TY TZ RX RY RZ
   axis XYZ
   position 0 0 0  
   orientation 0 0 0 
:bonedata
  begin
     id 1 
     name lhipjoint
     direction 0.611823 -0.767273 0.19226 
     length 2.47422 
     axis 0 0 0  XYZ
  end
  begin
     id 2 
     name lfemur
     direction 0.34202 -0.939693 0  
     length 7.40835  
     axis 0 0 20  XYZ
    dof rx ry rz
    limits (-160.0 20.0)
           (-70.0 70.0)
           (-60.0 70.0)
  end
  begin
     id 3 
     name ltibia
     direction 0.34202 -0.939693 0   
     length 8.03679   
     axis 0 0 20   XYZ
    dof rx
    limits (-10.0 170.0)
  end
  begin
     id 4 
     name lfoot
     direction 0.0883598 -0.242766 0.966052   
     length 2.06694   
     axis -90 7.62852e-016 20   XYZ
    dof rx rz
    limits (-45.0 90.0)
           (-70.0 20.0)
  end
  begin
     id 5 
     name ltoes
     direction 1.53617e-011 -4.21699e-011 1   
     length 1.03711   
     axis -90 7.62852e-016 20   XYZ
    dof rx
    limits (-90.0 20.0)
  end
  begin
     id 6 
     name rhipjoint
     direction -0.590066 -0.783143 0.196236   
     length 2.42408  
     axis 0 0 0  XYZ 
  end
  begin
     id 7 
     name rfemur
     direction -0.34202 -0.939693 0   
     length 7.88987   
     axis 0 0 -20   XYZ
    dof rx ry rz
    limits (-160.0 20.0)
           (-70.0 70.0)
           (-70.0 60.0)
  end
  begin
     id 8 
     name rtibia
     direction -0.34202 -0.939693 0   
     length 7.87584   
     axis 0 0 -20   XYZ
    dof rx
    limits (-10.0 170.0)
 end
 begin
     id 9 
     name rfoot
     direction -0.130476 -0.358481 0.924374   
     length 2.21745  
     axis -90 -7.62852e-016 -20   XYZ
    dof rx rz
    limits (-45.0 90.0)
           (-20.0 70.0)
  end
  begin
     id 10 
     name rtoes
     direction 8.20695e-005 8.89091e-005 1   
     length 1.09536   
     axis -90 -7.62852e-016 -20   XYZ
    dof rx
    limits (-90.0 20.0)
  end
  begin
     id 11 
     name lowerback
     direction 0.00981224 0.999875 -0.0124197   
     length 1.94808   
     axis 0 0 0   XYZ
    dof rx ry rz
    limits (-20.0 45.0)
           (-30.0 30.0)
           (-30.0 30.0)
  end
  begin
     id 12 
     name upperback
     direction 0.038911 0.999194 0.00981686   
     length 1.94415   
     axis 0 0 0   XYZ
    dof rx ry rz
    limits (-20.0 45.0)
           (-30.0 30.0)
           (-30.0 30.0)
  end
  begin
     id 13 
     name thorax
     direction 0.0330692 0.999334 0.0154389   
     length 1.94117   
     axis 0 0 0   XYZ
    dof rx ry rz
    limits (-20.0 45.0)
           (-30.0 30.0)
           (-30.0 30.0)
  end
  begin
     id 14 
     name lowerneck
     direction -0.0374305 0.99415 0.10132   
     length 1.87291   
     axis 0 0 0   XYZ
    dof rx ry rz
    limits (-20.0 45.0)
           (-30.0 30.0)
           (-30.0 30.0)
  end
  begin
     id 15 
     name upperneck
     direction 0.0120692 0.985979 -0.166431   
     length 1.89248   
     axis 0 0 0   XYZ
    dof rx ry rz
    limits (-20.0 45.0)
           (-30.0 30.0)
           (-30.0 30.0)
  end
  begin
     id 16
     name head
     direction 0.00629908 0.997708 -0.06737  
     length 1.90559  
     axis 0 0 0   XYZ
    dof rx ry rz
    limits (-20.0 45.0)
           (-30.0 30.0)
           (-30.0 30.0)
  end
  begin
     id 17 
     name lclavicle
     direction 0.961536 0.27308 -0.0295863  
     length 3.52757  
     axis 0 0 0   XYZ
    dof ry rz
    limits (-20.0 10.0)
           (0.0 20.0)
  end
  begin
     id 18 
     name lhumerus
     direction 1 -4.48969e-011 2.61153e-029   
     length 5.14845   
     axis 180 -30 -90   XYZ
    dof rx ry rz
    limits (-60.0 90.0)
           (-90.0 90.0)
           (-90.0 90.0)
  end
  begin
     id 19
     name lradius
     direction 1 -4.4896e-011 -3.37549e-027   
     length 3.43674   
     axis 180 -30 -90   XYZ
    dof rx
    limits (-10.0 170.0)
  end
  begin
     id 20
     name lwrist
     direction 1 -4.48969e-011 2.56952e-028   
     length 1.71837   
     axis -5.12785e-016 90 90   XYZ
    dof ry
    limits (-180.0 0.0)
 end
  begin
     id 21 
     name lhand
     direction 1 -4.49094e-011 5.13905e-028   
     length 0.588709   
     axis -3.27915e-016 90 90   XYZ
    dof rx rz
    limits (-90.0 90.0)
           (-45.0 45.0)
  end
  begin
     id 22 
     name lfingers
     direction 1 -4.48821e-011 1.02781e-027   
     length 0.474633   
     axis -6.5583e-016 90 90   XYZ
    dof rx
    limits (0.0 90.0)
  end
  begin
     id 23
     name lthumb
     direction 0.707107 -6.34922e-011 0.707107   
     length 0.68148   
     axis -90 45 2.85299e-015   XYZ
    dof rx rz
    limits (-45.0 45.0)
           (-45.0 45.0)
  end
  begin
     id 24 
     name rclavicle
     direction -0.940964 0.333844 -0.0559866   
     length 3.55948  
     axis 0 0 0   XYZ 
    dof ry rz
    limits (-10.0 20.0)
           (-20.0 0.0)
  end
  begin
     id 25 
     name rhumerus
     direction -1 -4.48973e-011 3.15259e-027  
     length 5.42185   
     axis 180 30 90   XYZ
    dof rx ry rz
    limits (-90.0 60.0)
           (-90.0 90.0)
           (-90.0 90.0)
  end
  begin
     id 26 
     name rradius
     direction -1 -4.48954e-011 -2.56271e-027   
     length 3.51317   
     axis 180 30 90   XYZ
    dof rx
    limits (-10.0 170.0)
  end
  begin
     id 27 
     name rwrist
     direction -1 -4.48943e-011 2.56952e-028   
     length 1.75658   
     axis -5.12785e-016 -90 -90   XYZ
    dof ry
    limits (-180.0 0.0)
  end
  begin
     id 28
     name rhand
     direction -1 -4.4912e-011 5.13905e-028   
     length 0.663187   
     axis -3.27915e-016 -90 -90   XYZ
    dof rx rz
    limits (-90.0 90.0)
           (-45.0 45.0)
  end
  begin
     id 29
     name rfingers
     direction -1 -4.48914e-011 1.02781e-027   
     length 0.534679   
     axis -6.5583e-016 -90 -90   XYZ
    dof rx
    limits (0.0 90.0)
  end
  begin
     id 30
     name rthumb
     direction -0.707107 -6.35033e-011 0.707107   
     length 0.767695   
     axis -90 -45 -2.85299e-015   XYZ
    dof rx rz
    limits (-45.0 45.0)
           (-45.0 45.0)
  end
:hierarchy
  begin
    root lhipjoint rhipjoint lowerback
    lhipjoint lfemur
    lfemur ltibia
    ltibia lfoot
    lfoot ltoes
    rhipjoint rfemur
    rfemur rtibia
    rtibia rfoot
    rfoot rtoes
    lowerback upperback
    upperback thorax
    thorax lowerneck lclavicle rclavicle
    lowerneck upperneck
    upperneck head
    lclavicle lhumerus
    lhumerus lradius
    lradius lwrist
    lwrist lhand lthumb
    lhand lfingers
    rclavicle rhumerus
    rhumerus rradius
    rradius rwrist
    rwrist rhand rthumb
    rhand rfingers
  end

#!OML:ASF F:\VICON\USERDATA\INSTALL\Justin_a\Justin_a.ASF
:FULLY-SPECIFIED
:DEGREES
1561
root -2.29412 17.8674 -14.35 -157.099 84.3848 -162.97
lowerback 1.95675 -0.635607 0.764931
upperback 1.1272 -0.775245 3.36249
thorax 0.0948808 -0.370956 3.03689
lowerneck -14.4739 -2.38071 -4.77455
upperneck 33.8014 -0.157279 -2.04312
head 13.9719 -0.553199 0.089545
rclavicle 3.47873e-015 0
rhumerus -35.1434 -13.3005 -79.2144
rradius 29.4824
rwrist -1.90444
rhand -26.5985 13.3477
rfingers 7.12502
rthumb -0.0322796 -16.632
lclavicle 3.47873e-015 0
lhumerus -33.6834 11.864 84.5966
lradius 36.3468
lwrist 7.36545
lhand -17.5674 28.1129
lfingers 7.12502
lthumb 8.68784 57.9141
rfemur -31.3275 2.8913 25.0736
rtibia 29.2371
rfoot -9.06341 -2.53542
rtoes 1.91993
lfemur -6.12521 -2.77265 -21.9745
ltibia 40.6766
lfoot -4.90768 -15.2687
ltoes -8.44977
1562
root -2.16331 17.8777 -14.3458 -153.915 84.3037 -160.143
lowerback 1.54334 -0.583963 1.17495
upperback 1.03237 -0.708169 3.41563
thorax 0.221619 -0.334708 2.85566
lowerneck -14.4359 -2.42054 -4.828
upperneck 33.8282 -0.21809 -1.98269
head 13.9768 -0.576769 0.113856
rclavicle 1.11319e-014 -7.95139e-016
rhumerus -35.5346 -13.7542 -78.8981
rradius 29.1048
rwrist -1.05529
rhand -26.3529 13.7334
rfingers 7.12502
rthumb 0.204951 -16.2462
lclavicle 1.11319e-014 -7.95139e-016
lhumerus -33.5454 11.8786 84.4929
lradius 36.5539
lwrist 7.44087
lhand -16.7259 24.9494
lfingers 7.12502
lthumb 9.49986 54.7152
rfemur -31.3169 2.46737 25.6111
rtibia 29.3435
rfoot -9.57091 -2.16262
rtoes 1.13609
lfemur -7.64824 -2.30673 -21.3553
ltibia 42.6536
lfoot -1.78623 -16.5167
ltoes -6.08152
1563
root -2.02146 17.8902 -14.3513 -154.509 84.4141 -160.601
lowerback 1.64534 -0.455871 1.00405
upperback 1.03732 -0.530599 3.64021
thorax 0.166155 -0.244846 3.18273
lowerneck -14.4579 -2.57061 -5.23663
upperneck 33.9192 -0.261308 -2.07428
head 14.0326 -0.656365 0.141363
rclavicle 1.31198e-014 6.12257e-014
rhumerus -35.9917 -13.8236 -78.1852
rradius 28.8922
rwrist -0.572225
rhand -26.1486 13.6306
rfingers 7.12502
rthumb 0.402244 -16.3488
lclavicle 1.31198e-014 6.12257e-014
lhumerus -33.4844 12.0853 84.9182
lradius 36.7979
lwrist 7.39325
lhand -16.3309 25.0309
lfingers 7.12502
lthumb 9.88097 54.779
rfemur -30.7708 1.9557 25.7119
rtibia 29.5024
rfoot -10.2044 -1.59339
rtoes -0.271424
lfemur -8.55861 -2.04006 -21.2822
ltibia 44.5054
lfoot 1.61812 -17.314
ltoes -2.56647
1564
root -1.89301 17.9039 -14.3399 -154.668 84.3018 -160.862
lowerback 1.4529 -0.482577 1.19539
upperback 1.08807 -0.574203 3.5234
thorax 0.324898 -0.266804 2.95283
lowerneck -14.4802 -2.56617 -4.99226
upperneck 33.805 -0.309827 -2.17318
head 13.9828 -0.661598 0.0509929
rclavicle 3.27995e-015 -7.95139e-015
rhumerus -36.1568 -13.7882 -78.3585
rradius 28.6216
rwrist -0.351501
rhand -25.9495 13.2433
rfingers 7.12502
rthumb 0.594497 -16.7356
lclavicle 3.27995e-015 -7.95139e-015
lhumerus -33.2145 11.9172 84.7255
lradius 37.134
lwrist 7.75975
lhand -16.3256 25.1766
lfingers 7.12502
lthumb 9.88607 54.9245
rfemur -30.452 1.62826 25.8926
rtibia 29.6241
rfoot -10.7801 -1.33296
rtoes -0.202479
lfemur -9.86123 -1.75848 -20.8963
ltibia 46.3329
lfoot 5.49221 -18.1167
ltoes 3.48944
1565
root -1.75973 17.9192 -14.3358 -154.927 84.3473 -161.077
lowerback 1.49662 -0.424257 0.946183
upperback 1.08713 -0.493429 3.72728
thorax 0.30021 -0.226561 3.30372
lowerneck -14.4807 -2.60507 -5.09703
upperneck 33.8221 -0.223644 -2.45558
head 13.9945 -0.672508 -0.030092
rclavicle 9.34288e-015 -2.06736e-014
rhumerus -36.4777 -13.3958 -78.0206
rradius 28.4881
rwrist -0.177732
rhand -25.7662 13.1086
rfingers 7.12502
rthumb 0.771531 -16.8698
lclavicle 9.34288e-015 -2.06736e-014
lhumerus -33.1651 12.1286 85.0571
lradius 37.424
lwrist 7.75237
lhand -16.8071 25.019
lfingers 7.12502
lthumb 9.42143 54.7884
rfemur -29.9624 1.40574 25.9765
rtibia 29.7188
rfoot -11.3047 -1.19698
rtoes -0.116005
lfemur -10.9446 -1.52061 -20.7035
ltibia 48.1006
lfoot 8.46644 -18.6871
ltoes 5.45491
1566
root -1.62317 17.9331 -14.3388 -153.897 84.3272 -160.009
lowerback 1.49136 -0.363854 0.907972
upperback 1.06678 -0.406342 3.95514
thorax 0.280033 -0.180996 3.56056
lowerneck -14.4575 -2.65022 -5.22813
upperneck 33.9451 -0.160697 -2.63934
head 14.0488 -0.682186 -0.0707653
rclavicle -7.95139e-016 1.03368e-014
rhumerus -36.8046 -13.0136 -77.6813
rradius 28.3363
rwrist -0.0814805
rhand -25.7749 13.1746
rfingers 7.12502
rthumb 0.763188 -16.8038
lclavicle -7.95139e-016 1.03368e-014
lhumerus -33.1588 12.1068 85.4462
lradius 37.8331
lwrist 8.08103
lhand -16.9043 25.0669
lfingers 7.12502
lthumb 9.32764 54.8405
rfemur -29.4178 1.1813 26.18
rtibia 29.7049
rfoot -11.8283 -1.10881
rtoes -1.30508
lfemur -12.073 -1.50753 -20.4395
ltibia 49.9324
lfoot 11.168 -18.9511
ltoes 8.23279
1567
root -1.50016 17.9479 -14.3249 -153.404 84.0729 -159.574
lowerback 1.4225 -0.445048 1.18673
upperback 1.03779 -0.51473 3.84414
thorax 0.291121 -0.234083 3.28895
lowerneck -14.4813 -2.60462 -4.94269
upperneck 34.0582 -0.152099 -2.68144
head 14.0994 -0.647974 -0.136718
rclavicle 3.18055e-015 -6.44062e-014
rhumerus -37.1506 -13.0342 -77.8876
rradius 28.2953
rwrist 0.324913
rhand -25.6752 13.2745
rfingers 7.12502
rthumb 0.859445 -16.7035
lclavicle 3.18055e-015 -6.44062e-014
lhumerus -33.1704 11.5699 85.2329
lradius 38.4523
lwrist 8.8687
lhand -16.6795 25.1462
lfingers 7.12502
lthumb 9.5446 54.91
rfemur -28.9989 0.786762 26.4984
rtibia 29.6612
rfoot -12.3332 -1.07185
rtoes -1.71092
lfemur -13.3933 -1.4468 -19.9541
ltibia 51.7661
lfoot 13.7325 -19.385
ltoes 11.6942
1568
root -1.37737 17.9653 -14.3108 -151.768 83.8859 -157.978
lowerback 1.34141 -0.390609 1.369
upperback 1.02435 -0.440128 3.89256
thorax 0.318111 -0.194798 3.23503
lowerneck -14.447 -2.65539 -4.83355
upperneck 34.1479 -0.222008 -2.74969
head 14.1314 -0.670453 -0.19425
rclavicle -3.37934e-015 3.65764e-014
rhumerus -37.4766 -12.9567 -77.8417
rradius 28.2759
rwrist 0.540872
rhand -25.4029 13.2268
rfingers 7.12502
rthumb 1.12245 -16.75
lclavicle -3.37934e-015 3.65764e-014
lhumerus -33.0319 10.9908 85.2842
lradius 38.8505
lwrist 9.30411
lhand -16.9889 25.1243
lfingers 7.12502
lthumb 9.24603 54.9016
rfemur -28.5728 0.428271 26.925
rtibia 29.5852
rfoot -12.8574 -0.87628
rtoes -1.87855
lfemur -14.7335 -1.26584 -19.3806
ltibia 53.5899
lfoot 15.6506 -19.7259
ltoes 14.8152
1569
root -1.24717 17.9845 -14.3035 -151.994 83.9612 -158.13
lowerback 1.34897 -0.312366 1.18805
upperback 1.04003 -0.337416 3.93945
thorax 0.32667 -0.144416 3.38465
lowerneck -14.3752 -2.65364 -4.79641
upperneck 34.2574 -0.1786 -2.84317
head 14.1648 -0.654783 -0.230672
rclavicle -5.56597e-015 7.95139e-015
rhumerus -37.7404 -12.4996 -77.849
rradius 28.2496
rwrist 0.554044
rhand -25.6138 13.0335
rfingers 7.12502
rthumb 0.918711 -16.9442
lclavicle -5.56597e-015 7.95139e-015
lhumerus -32.9167 10.7044 85.4224
lradius 39.2552
lwrist 9.59674
lhand -17.3946 25.1818
lfingers 7.12502
lthumb 8.85459 54.976
rfemur -28.0198 0.169528 27.003
rtibia 29.5578
rfoot -13.4775 -0.682738
rtoes -2.4223
lfemur -15.8553 -1.05909 -19.2412
ltibia 55.3523
lfoot 16.1221 -20.2657
ltoes 14.0522
1570
root -1.12091 18.0063 -14.2975 -152.575 84.0051 -158.647
lowerback 1.37514 -0.259073 0.95234
upperback 1.05408 -0.266486 4.04159
thorax 0.324667 -0.109825 3.62311
lowerneck -14.2315 -2.69688 -4.86024
upperneck 34.296 -0.18128 -2.93953
head 14.1525 -0.671334 -0.256958
rclavicle 7.7526e-015 -6.67916e-014
rhumerus -37.8819 -11.9748 -77.8598
rradius 28.136
rwrist 0.387867
rhand -26.1085 12.9855
rfingers 7.12502
rthumb 0.440983 -16.9937
lclavicle 7.7526e-015 -6.67916e-014
lhumerus -32.7752 10.7301 85.5907
lradius 39.5563
lwrist 9.70191
lhand -16.9961 25.1628
lfingers 7.12502
lthumb 9.23906 54.9404
rfemur -27.4542 -0.108408 27.0578
rtibia 29.503
rfoot -14.0672 -0.597067
rtoes -3.29373
lfemur -16.9558 -0.89574 -19.1651
ltibia 57.0293
lfoot 15.6236 -20.7445
ltoes 11.6286
1571
root -1.0056 18.0163 -14.2847 -152.822 83.9952 -158.909
lowerback 1.43076 -0.239408 1.01853
upperback 1.0331 -0.240679 3.90101
thorax 0.269431 -0.097402 3.43975
lowerneck -14.1349 -2.70328 -4.71541
upperneck 34.277 -0.277712 -2.84373
head 14.1187 -0.680297 -0.257648
rclavicle 1.21259e-014 3.18055e-015
rhumerus -37.9618 -12.0537 -78.0872
rradius 27.9517
rwrist 0.603414
rhand -26.1374 12.9145
rfingers 7.12502
rthumb 0.413036 -17.0649
lclavicle 1.21259e-014 3.18055e-015
lhumerus -32.6543 10.4029 85.4106
lradius 39.9341
lwrist 9.69952
lhand -16.3913 25.0338
lfingers 7.12502
lthumb 9.82264 54.7847
rfemur -27.0165 -0.104662 27.1223
rtibia 29.4735
rfoot -14.5867 -0.81388
rtoes -4.35657
lfemur -18.1784 -0.913766 -19.0534
ltibia 58.6941
lfoot 14.3776 -20.6644
ltoes 9.05394
1572
root -0.880796 18.032 -14.2781 -150.605 84.0577 -156.547
lowerback 1.49301 -0.181274 1.35824
upperback 1.12471 -0.159953 3.81929
thorax 0.322845 -0.055092 3.16269
lowerneck -14.3113 -2.73217 -4.78786
upperneck 34.4502 -0.369466 -2.58268
head 14.2373 -0.698078 -0.157558
rclavicle -9.93923e-016 1.27222e-014
rhumerus -37.9167 -11.9522 -78.3276
rradius 27.7429
rwrist 0.941469
rhand -25.8039 13.3562
rfingers 7.12502
rthumb 0.735131 -16.6222
lclavicle -9.93923e-016 1.27222e-014
lhumerus -32.4866 10.0716 85.2511
lradius 40.3403
lwrist 9.73412
lhand -16.4065 24.8987
lfingers 7.12502
lthumb 9.80795 54.6503
rfemur -26.3546 0.108529 27.377
rtibia 29.4228
rfoot -15.124 -1.0404
rtoes -4.57111
lfemur -19.1397 -0.383141 -18.6724
ltibia 60.2582
lfoot 12.5353 -20.3912
ltoes 7.17888
1573
root -0.760781 18.0406 -14.2662 -148.362 84.1191 -154.385
lowerback 1.43554 -0.0649852 1.12892
upperback 1.08263 -0.000852645 4.10603
thorax 0.305099 0.0255498 3.58746
lowerneck -14.3582 -2.84348 -5.10714
upperneck 34.654 -0.406755 -2.56896
head 14.3491 -0.750674 -0.103579
rclavicle 6.55989e-015 -1.59028e-015
rhumerus -37.9234 -11.2853 -78.1518
rradius 27.6789
rwrist 0.861912
rhand -25.4275 13.302
rfingers 7.12502
rthumb 1.0987 -16.6749
lclavicle 6.55989e-015 -1.59028e-015
lhumerus -32.369 10.1438 85.5846
lradius 40.5714
lwrist 9.67273
lhand -16.7607 24.6954
lfingers 7.12502
lthumb 9.46623 54.4628
rfemur -25.9696 0.422367 27.6205
rtibia 29.4195
rfoot -15.5662 -1.42703
rtoes -5.37572
lfemur -20.3362 0.111252 -18.2998
ltibia 61.7407
lfoot 10.2578 -19.7493
ltoes 4.70741
1574
root -0.641973 18.0507 -14.2533 -147.288 84.2283 -153.319
lowerback 1.43184 0.000470623 0.951126
upperback 1.06564 0.0883339 4.24628
thorax 0.284667 0.0703653 3.83266
lowerneck -14.2304 -2.87331 -5.23089
upperneck 34.6879 -0.357861 -2.70031
head 14.3395 -0.758337 -0.125721
rclavicle -9.14409e-015 -2.14687e-014
rhumerus -37.9361 -11.0672 -78.018
rradius 27.56
rwrist 1.26165
rhand -25.7277 13.1743
rfingers 7.12502
rthumb 0.808714 -16.8039
lclavicle -9.14409e-015 -2.14687e-014
lhumerus -32.3239 9.90109 85.7821
lradius 41.0011
lwrist 9.98926
lhand -17.4091 25.1619
lfingers 7.12502
lthumb 8.84054 54.9567
rfemur -25.5356 0.614336 27.7166
rtibia 29.4377
rfoot -15.9923 -1.52897
rtoes -4.9803
lfemur -21.4725 0.599383 -18.0926
ltibia 63.0612
lfoot 7.90567 -18.8705
ltoes 1.42074
